<svg width="17" height="16" viewBox="0 0 17 16" fill="none" xmlns="http://www.w3.org/2000/svg">
<circle cx="8.69531" cy="8" r="8" fill="#5E186B"/>
<g clip-path="url(#clip0_458_866)">
<path d="M9.54371 7.99999L12.6195 4.9245L12.6195 4.9245L9.54371 7.99999ZM9.54371 7.99999L12.6195 11.0755C12.8539 11.3099 12.8539 11.6898 12.6195 11.9242C12.6195 11.9242 12.6195 11.9242 12.6195 11.9242M9.54371 7.99999L12.5488 11.8535L12.6195 11.9242M12.6195 11.9242C12.3852 12.1586 12.0052 12.1586 11.7708 11.9242L11.7708 11.9242L8.6953 8.84839M12.6195 11.9242L8.6953 8.84839M8.6953 8.84839L5.61982 11.9242L5.5491 11.8535L5.61982 11.9242C5.38545 12.1586 5.00546 12.1586 4.77109 11.9242C4.53672 11.6899 4.53672 11.3099 4.77109 11.0755L4.7711 11.0755L7.8469 7.99999L4.7711 4.9245L4.77109 4.9245C4.53671 4.69014 4.53674 4.31015 4.77109 4.07578C5.00545 3.8414 5.38544 3.84141 5.61981 4.07578L5.61982 4.07578L8.69531 7.15159L11.7708 4.07578C12.0052 3.84141 12.3852 3.84141 12.6195 4.07578C12.6195 4.07578 12.6195 4.07578 12.6195 4.07578L8.6953 8.84839Z" fill="white" stroke="white" stroke-width="0.2"/>
</g>
<defs>
<clipPath id="clip0_458_866">
<rect width="8" height="8" fill="white" transform="translate(4.69531 4)"/>
</clipPath>
</defs>
</svg>
