<svg width="37" height="15" viewBox="0 0 37 15" fill="none" xmlns="http://www.w3.org/2000/svg">
<path d="M10.9983 0.873614V14H9.46009L2.30723 3.69374H2.17905V14H0.589523V0.873614H2.12777L9.30626 11.2055H9.43445V0.873614H10.9983ZM23.1521 4.97561C23.0111 4.54405 22.8252 4.15735 22.5945 3.81551C22.368 3.46941 22.0967 3.17458 21.7805 2.93102C21.4686 2.68747 21.1139 2.50159 20.7165 2.37341C20.3192 2.24522 19.8833 2.18113 19.409 2.18113C18.6314 2.18113 17.9242 2.38195 17.2875 2.78361C16.6509 3.18526 16.1445 3.77706 15.7685 4.559C15.3925 5.34094 15.2045 6.30021 15.2045 7.43681C15.2045 8.5734 15.3946 9.53267 15.7749 10.3146C16.1552 11.0966 16.6701 11.6884 17.3196 12.09C17.9691 12.4917 18.6997 12.6925 19.5116 12.6925C20.2636 12.6925 20.9259 12.5323 21.4985 12.2118C22.0753 11.887 22.524 11.4298 22.8445 10.8402C23.1692 10.2462 23.3316 9.54763 23.3316 8.74432L23.8187 8.84687H19.8705V7.43681H24.8698V8.84687C24.8698 9.92791 24.6391 10.868 24.1776 11.667C23.7204 12.466 23.088 13.0856 22.2804 13.5257C21.4771 13.9615 20.5542 14.1795 19.5116 14.1795C18.3493 14.1795 17.3281 13.906 16.4479 13.3591C15.572 12.8121 14.8883 12.0345 14.3969 11.0261C13.9098 10.0176 13.6662 8.82123 13.6662 7.43681C13.6662 6.39849 13.8051 5.46486 14.0828 4.63591C14.3649 3.8027 14.7622 3.09339 15.275 2.508C15.7877 1.92261 16.3945 1.47396 17.0952 1.16204C17.796 0.850113 18.5673 0.694151 19.409 0.694151C20.1012 0.694151 20.7465 0.798838 21.3447 1.00821C21.9471 1.21331 22.4834 1.506 22.9534 1.88629C23.4277 2.26231 23.8229 2.7131 24.1391 3.23867C24.4553 3.75997 24.6733 4.33895 24.7929 4.97561H23.1521ZM34.7707 4.15521C34.6938 3.50573 34.3818 3.00152 33.8349 2.6426C33.288 2.28367 32.6171 2.10421 31.8224 2.10421C31.2413 2.10421 30.7328 2.19822 30.2969 2.38622C29.8654 2.57423 29.5278 2.83274 29.2843 3.16176C29.045 3.49077 28.9253 3.86465 28.9253 4.2834C28.9253 4.63378 29.0087 4.93502 29.1753 5.18712C29.3462 5.43495 29.5641 5.64218 29.8291 5.80883C30.094 5.9712 30.3717 6.10579 30.6623 6.21262C30.9528 6.31517 31.2199 6.39849 31.4634 6.46258L32.7966 6.82151C33.1384 6.91124 33.5187 7.03515 33.9375 7.19325C34.3605 7.35135 34.7643 7.56713 35.1488 7.8406C35.5377 8.10979 35.8581 8.4559 36.1102 8.87891C36.3623 9.30193 36.4884 9.82109 36.4884 10.4364C36.4884 11.1457 36.3025 11.7866 35.9308 12.3592C35.5633 12.9318 35.0249 13.3868 34.3156 13.7244C33.6106 14.062 32.7539 14.2307 31.7455 14.2307C30.8054 14.2307 29.9914 14.079 29.3035 13.7757C28.6198 13.4723 28.0814 13.0493 27.6883 12.5066C27.2995 11.964 27.0794 11.3337 27.0282 10.6159H28.669C28.7117 11.1115 28.8783 11.5217 29.1689 11.8465C29.4637 12.1669 29.8355 12.4062 30.2841 12.5643C30.7371 12.7181 31.2242 12.795 31.7455 12.795C32.3522 12.795 32.897 12.6968 33.3798 12.5002C33.8627 12.2994 34.2451 12.0216 34.5271 11.667C34.8091 11.3081 34.9501 10.8893 34.9501 10.4108C34.9501 9.97492 34.8284 9.62027 34.5848 9.3468C34.3413 9.07333 34.0208 8.85114 33.6234 8.68022C33.226 8.50931 32.7966 8.35976 32.3351 8.23157L30.72 7.77009C29.6945 7.47526 28.8826 7.05438 28.2844 6.50745C27.6862 5.96052 27.3871 5.2448 27.3871 4.36031C27.3871 3.62537 27.5858 2.98443 27.9832 2.4375C28.3848 1.88629 28.9232 1.459 29.5983 1.15563C30.2777 0.847976 31.0362 0.694151 31.8736 0.694151C32.7197 0.694151 33.4717 0.84584 34.1297 1.14922C34.7878 1.44832 35.3091 1.85852 35.6936 2.37982C36.0825 2.90111 36.2876 3.49291 36.3089 4.15521H34.7707Z" fill="#F3FDFF"/>
</svg>
