<svg width="17" height="21" viewBox="0 0 17 21" fill="none" xmlns="http://www.w3.org/2000/svg">
<path d="M12.5911 4.95605H4.47334C2.84834 4.95605 2.03223 5.76494 2.03223 7.38994V15.5149C2.03223 17.1399 2.84834 17.9561 4.47334 17.9561H12.5911C14.2233 17.9561 15.0322 17.1399 15.0322 15.5149V7.38994C15.0322 5.76494 14.2233 4.95605 12.5911 4.95605ZM11.06 11.9977H9.07389V13.9838C9.07389 14.2799 8.82834 14.5255 8.53223 14.5255C8.23612 14.5255 7.99056 14.2799 7.99056 13.9838V11.9977H6.00445C5.70834 11.9977 5.46278 11.7522 5.46278 11.4561C5.46278 11.1599 5.70834 10.9144 6.00445 10.9144H7.99056V8.92828C7.99056 8.63217 8.23612 8.38661 8.53223 8.38661C8.82834 8.38661 9.07389 8.63217 9.07389 8.92828V10.9144H11.06C11.3561 10.9144 11.6017 11.1599 11.6017 11.4561C11.6017 11.7522 11.3561 11.9977 11.06 11.9977Z" fill="white"/>
</svg>
