<svg width="24" height="24" viewBox="0 0 24 24" fill="none" xmlns="http://www.w3.org/2000/svg">
<path d="M17.0544 4.05442L17.5847 3.52409L17.0544 4.05442ZM19.9456 6.94558L19.4153 7.47591L19.9456 6.94558ZM6.75 21V21.75H8.25V21H6.75ZM15.75 21V21.75H17.25V21H15.75ZM14.7 8.25C15.1142 8.25 15.45 7.91421 15.45 7.5C15.45 7.08579 15.1142 6.75 14.7 6.75V8.25ZM9.3 6.75C8.88579 6.75 8.55 7.08579 8.55 7.5C8.55 7.91421 8.88579 8.25 9.3 8.25V6.75ZM20.25 9.49117V17.4H21.75V9.49117H20.25ZM17.4 20.25H6.6V21.75H17.4V20.25ZM3.75 17.4V6.6H2.25V17.4H3.75ZM6.6 3.75H14.5088V2.25H6.6V3.75ZM16.5241 4.58475L19.4153 7.47591L20.4759 6.41525L17.5847 3.52409L16.5241 4.58475ZM14.5088 3.75C15.2647 3.75 15.9896 4.05027 16.5241 4.58475L17.5847 3.52409C16.769 2.7083 15.6625 2.25 14.5088 2.25V3.75ZM6.6 20.25C5.02599 20.25 3.75 18.974 3.75 17.4H2.25C2.25 19.8024 4.19756 21.75 6.6 21.75V20.25ZM20.25 17.4C20.25 18.974 18.974 20.25 17.4 20.25V21.75C19.8024 21.75 21.75 19.8024 21.75 17.4H20.25ZM21.75 9.49117C21.75 8.33748 21.2917 7.23104 20.4759 6.41525L19.4153 7.47591C19.9497 8.01039 20.25 8.7353 20.25 9.49117H21.75ZM3.75 6.6C3.75 5.02599 5.02599 3.75 6.6 3.75V2.25C4.19756 2.25 2.25 4.19756 2.25 6.6H3.75ZM8.25 21V15.6H6.75V21H8.25ZM9.3 14.55H14.7V13.05H9.3V14.55ZM15.75 15.6V21H17.25V15.6H15.75ZM14.7 14.55C15.2799 14.55 15.75 15.0201 15.75 15.6H17.25C17.25 14.1917 16.1083 13.05 14.7 13.05V14.55ZM8.25 15.6C8.25 15.0201 8.7201 14.55 9.3 14.55V13.05C7.89167 13.05 6.75 14.1917 6.75 15.6H8.25ZM14.7 6.75L9.3 6.75V8.25L14.7 8.25V6.75Z" fill="#5E186B"/>
</svg>
