<svg width="20" height="20" viewBox="0 0 20 20" fill="none" xmlns="http://www.w3.org/2000/svg">
<path fill-rule="evenodd" clip-rule="evenodd" d="M8.52068 4.35068C7.99332 5.80092 7.65588 7.84255 7.65588 10.1255C7.65588 10.417 7.66138 10.7045 7.67207 10.9873C8.45886 11.051 9.28999 11.0852 10.1501 11.0852C11.0109 11.0852 11.8427 11.0509 12.63 10.9872C12.6407 10.7044 12.6462 10.4169 12.6462 10.1255C12.6462 7.84255 12.3088 5.80092 11.7814 4.35068C11.5169 3.6232 11.2155 3.07499 10.9098 2.71942C10.8187 2.61345 10.7319 2.5296 10.6498 2.46406C10.4849 2.45349 10.3186 2.44812 10.151 2.44812C9.98348 2.44812 9.81718 2.45349 9.6523 2.46406C9.57022 2.5296 9.48341 2.61345 9.3923 2.71942C9.08661 3.07499 8.78522 3.6232 8.52068 4.35068ZM12.5552 12.1481C11.7853 12.2061 10.9794 12.2368 10.1501 12.2368C9.3215 12.2368 8.5162 12.2061 7.74688 12.1483C7.88077 13.6054 8.15509 14.895 8.52068 15.9004C8.78522 16.6279 9.08661 17.1761 9.3923 17.5316C9.48341 17.6376 9.57022 17.7215 9.65229 17.787C9.81718 17.7976 9.98348 17.8029 10.151 17.8029C10.3186 17.8029 10.4849 17.7976 10.6498 17.787C10.7319 17.7215 10.8187 17.6376 10.9098 17.5316C11.2155 17.1761 11.5169 16.6279 11.7814 15.9004C12.147 14.895 12.4213 13.6053 12.5552 12.1481ZM6.51572 10.8688C6.50813 10.6236 6.50427 10.3757 6.50427 10.1255C6.50427 7.74438 6.85429 5.56344 7.4384 3.95713C7.59706 3.5208 7.77626 3.11779 7.97592 2.76059C4.87072 3.67622 2.58443 6.50222 2.47754 9.87809C3.15073 10.1835 4.07949 10.4581 5.21122 10.668C5.62379 10.7445 6.05983 10.8119 6.51572 10.8688ZM2.54116 11.1483C3.24466 11.4106 4.07981 11.6294 5.00118 11.8003C5.49968 11.8928 6.02822 11.9721 6.58127 12.0368C6.71448 13.6627 7.01492 15.1294 7.4384 16.2939C7.59706 16.7303 7.77626 17.1333 7.97592 17.4905C5.11168 16.6459 2.94418 14.1759 2.54116 11.1483ZM13.7208 12.0365C14.2732 11.9719 14.8011 11.8927 15.2991 11.8003C16.2213 11.6292 17.0571 11.4102 17.761 11.1476C17.3582 14.1755 15.1906 16.6458 12.3262 17.4905C12.5258 17.1333 12.705 16.7303 12.8637 16.2939C13.2872 15.1293 13.5876 13.6626 13.7208 12.0365ZM17.8245 9.87727C17.1512 10.1831 16.2218 10.4579 15.089 10.668C14.677 10.7444 14.2416 10.8117 13.7864 10.8686C13.7939 10.6234 13.7978 10.3756 13.7978 10.1255C13.7978 7.74438 13.4478 5.56344 12.8637 3.95713C12.705 3.5208 12.5258 3.11779 12.3262 2.76059C15.4311 3.67615 17.7173 6.50176 17.8245 9.87727Z" fill="#570068"/>
</svg>
