<svg width="24" height="24" viewBox="0 0 24 24" fill="none" xmlns="http://www.w3.org/2000/svg">
<g clip-path="url(#clip0_89_1243)">
<path d="M13.0017 16.0218C13.0017 17.0582 12.9984 18.0947 13.0031 19.1311C13.0067 19.9938 13.4864 20.6781 14.251 20.9235C14.3456 20.9538 14.4449 20.9851 14.5425 20.9881C15.7161 21.0245 16.8848 20.9925 18.0274 20.6734C19.5166 20.2573 20.389 19.246 20.7368 17.7333C20.9164 16.9519 20.9817 16.1571 20.988 15.3573C20.9954 14.4796 21.012 13.6012 20.9857 12.7242C20.957 11.7751 20.2368 11.0409 19.3077 11.0157C18.2983 10.9882 17.2875 11.0055 16.2775 11.0038C15.8057 11.0032 15.3337 11.0011 14.862 11.0045C13.7619 11.0127 13.0171 11.769 13.0031 12.8959C12.9971 13.383 13.0017 13.8701 13.0017 14.3572C13.0017 14.9123 13.0017 15.4674 13.0017 16.0222V16.0218Z" fill="#DB26B5"/>
<path d="M9.99878 7.98002C9.99878 6.94325 10.0021 5.90682 9.99778 4.87004C9.99411 4.00669 9.51535 3.3205 8.75005 3.07805C8.61378 3.03487 8.46786 3.00426 8.32626 3.00256C7.13684 2.98964 5.95042 3.01276 4.79964 3.38136C3.58257 3.77139 2.78063 4.58747 2.38682 5.82419C2.14094 6.59641 2.04665 7.39482 2.02499 8.20003C1.99834 9.17389 1.99634 10.1484 2.00367 11.1226C2.011 12.071 2.5664 12.7769 3.42698 12.9612C3.56158 12.9901 3.70251 12.9969 3.84044 12.9973C5.27808 12.9997 6.71571 12.9966 8.15301 13C8.7184 13.0014 9.2045 12.8113 9.56366 12.3624C9.85918 11.9935 10.0018 11.5576 9.99978 11.0733C9.99511 10.0423 9.99844 9.01136 9.99844 7.98036L9.99878 7.98002Z" fill="#DB26B5"/>
<path d="M5.95107 15.0029C5.19142 15.0029 4.43143 14.9951 3.67178 15.0051C2.92454 15.0148 2.27691 15.4865 2.06092 16.1538C1.97406 16.4225 1.99519 16.6927 2.03174 16.9656C2.12498 17.6651 2.27121 18.3492 2.61766 18.9811C3.0805 19.8254 3.81399 20.348 4.74569 20.6356C5.75353 20.9468 6.79625 20.9966 7.84265 20.9999C8.13611 21.0008 8.44165 20.9986 8.72103 20.9255C9.47867 20.7267 9.97537 20.0787 9.98845 19.2923C10.0025 18.4351 10.0052 17.577 9.98812 16.7198C9.968 15.7168 9.19325 15.0064 8.14718 15.0016C8.13611 15.0016 8.12471 15.0016 8.11364 15.0016C7.3929 15.0016 6.67215 15.0016 5.95174 15.0016V15.0032L5.95107 15.0029Z" fill="#EF63D5"/>
<path d="M5.95107 15.0029C5.19142 15.0029 4.43143 14.9951 3.67178 15.0051C2.92454 15.0148 2.27691 15.4865 2.06092 16.1538C1.97406 16.4225 1.99519 16.6927 2.03174 16.9656C2.12498 17.6651 2.27121 18.3492 2.61766 18.9811C3.0805 19.8254 3.81399 20.348 4.74569 20.6356C5.75353 20.9468 6.79625 20.9966 7.84265 20.9999C8.13611 21.0008 8.44165 20.9986 8.72103 20.9255C9.47867 20.7267 9.97537 20.0787 9.98845 19.2923C10.0025 18.4351 10.0052 17.577 9.98812 16.7198C9.968 15.7168 9.19325 15.0064 8.14718 15.0016C8.13611 15.0016 8.12471 15.0016 8.11364 15.0016C7.3929 15.0016 6.67215 15.0016 5.95174 15.0016V15.0032L5.95107 15.0029Z" fill="url(#paint0_linear_89_1243)"/>
<path d="M17.0465 8.99711C17.8135 8.99711 18.5805 9.00483 19.3474 8.99486C20.0949 8.98521 20.7654 8.51478 20.9479 7.84004C21.0172 7.58423 21.0061 7.2985 20.9792 7.03112C20.9116 6.36184 20.7587 5.70898 20.4444 5.10051C19.9682 4.17801 19.1791 3.622 18.1674 3.33273C17.1803 3.05054 16.1633 3.00163 15.1426 3.00002C14.8596 2.9997 14.5655 3.00227 14.2953 3.07049C13.5774 3.25229 13.0497 3.86397 13.0259 4.58376C12.9949 5.52074 12.9879 6.4603 13.0262 7.39664C13.0638 8.31496 13.85 8.99067 14.8129 8.99743C15.5573 9.00258 16.3021 8.9984 17.0465 8.9984V8.99711Z" fill="#EF63D5"/>
<path d="M17.0465 8.99711C17.8135 8.99711 18.5805 9.00483 19.3474 8.99486C20.0949 8.98521 20.7654 8.51478 20.9479 7.84004C21.0172 7.58423 21.0061 7.2985 20.9792 7.03112C20.9116 6.36184 20.7587 5.70898 20.4444 5.10051C19.9682 4.17801 19.1791 3.622 18.1674 3.33273C17.1803 3.05054 16.1633 3.00163 15.1426 3.00002C14.8596 2.9997 14.5655 3.00227 14.2953 3.07049C13.5774 3.25229 13.0497 3.86397 13.0259 4.58376C12.9949 5.52074 12.9879 6.4603 13.0262 7.39664C13.0638 8.31496 13.85 8.99067 14.8129 8.99743C15.5573 9.00258 16.3021 8.9984 17.0465 8.9984V8.99711Z" fill="url(#paint1_linear_89_1243)"/>
</g>
<defs>
<linearGradient id="paint0_linear_89_1243" x1="10.4164" y1="21.0508" x2="6.20313" y2="13.7254" gradientUnits="userSpaceOnUse">
<stop stop-color="#F026C6"/>
<stop offset="1" stop-color="#F48EDF"/>
</linearGradient>
<linearGradient id="paint1_linear_89_1243" x1="21.4164" y1="9.05082" x2="17.2031" y2="1.72535" gradientUnits="userSpaceOnUse">
<stop stop-color="#F026C6"/>
<stop offset="1" stop-color="#F48EDF"/>
</linearGradient>
<clipPath id="clip0_89_1243">
<rect width="19" height="18" fill="white" transform="matrix(1 0 0 -1 2 21)"/>
</clipPath>
</defs>
</svg>
