<svg width="17" height="16" viewBox="0 0 17 16" fill="none" xmlns="http://www.w3.org/2000/svg">
<path d="M14.0652 5.42403C13.8321 6.15631 13.2341 6.75061 12.5003 6.97988C11.3133 7.351 10.1845 6.84185 9.62019 5.94548C9.57571 5.87494 9.5788 5.78601 9.61944 5.71316C9.95299 5.11814 10.1424 4.43108 10.1424 3.69727C10.1424 3.44269 10.1201 3.19424 10.0757 2.95117C10.0611 2.87142 10.0856 2.7886 10.1477 2.7357C10.5733 2.37454 11.1239 2.1637 11.7143 2.1637C13.3369 2.1637 14.602 3.73634 14.0652 5.42403Z" fill="#570068"/>
<path d="M16.2674 11.5035V13.2824C16.2674 13.494 16.0956 13.6658 15.884 13.6658H13.0469C12.9196 13.6658 12.8169 13.563 12.8169 13.4357V12.531C12.8169 11.0488 12.3092 9.55506 11.2196 8.51837C11.0716 8.37804 11.1774 8.12964 11.3806 8.12964H12.9004C15.3856 8.12964 16.2674 9.94694 16.2674 11.5035Z" fill="#570068"/>
<path d="M5.92261 6.7644C7.61654 6.7644 8.98975 5.3912 8.98975 3.69727C8.98975 2.00333 7.61654 0.630127 5.92261 0.630127C4.22867 0.630127 2.85547 2.00333 2.85547 3.69727C2.85547 5.3912 4.22867 6.7644 5.92261 6.7644Z" fill="#570068"/>
<path d="M7.44949 8.29822H4.38235C1.26921 8.29822 0.165039 10.5779 0.165039 12.5301V14.8159C0.165039 15.0275 0.336799 15.1993 0.548431 15.1993H11.2834C11.495 15.1993 11.6668 15.0275 11.6668 14.8159V12.5301C11.6668 10.5779 10.5626 8.29822 7.44949 8.29822Z" fill="#570068"/>
</svg>
