<svg width="19" height="20" viewBox="0 0 19 20" fill="none" xmlns="http://www.w3.org/2000/svg">
<path fill-rule="evenodd" clip-rule="evenodd" d="M9.21484 2.27869C5.00383 2.27869 1.59033 5.69218 1.59033 9.9032C1.59033 14.1142 5.00383 17.5277 9.21484 17.5277C13.4259 17.5277 16.8394 14.1142 16.8394 9.9032C16.8394 5.69218 13.4259 2.27869 9.21484 2.27869ZM11.9063 12.5947C11.795 12.706 11.6486 12.7624 11.5022 12.7624C11.3558 12.7624 11.2094 12.7068 11.0981 12.5947L8.81072 10.3073C8.70322 10.1998 8.64301 10.0542 8.64301 9.9032V6.09094C8.64301 5.77529 8.89919 5.5191 9.21484 5.5191C9.5305 5.5191 9.78668 5.77529 9.78668 6.09094V9.66605L11.9063 11.7857C12.1297 12.0098 12.1297 12.3713 11.9063 12.5947Z" fill="#570068"/>
</svg>
