<svg width="18" height="18" viewBox="0 0 18 18" fill="none" xmlns="http://www.w3.org/2000/svg">
<path fill-rule="evenodd" clip-rule="evenodd" d="M16.0146 4.42965C16.0146 5.78095 14.9191 6.87639 13.5678 6.87639C12.798 6.87639 12.1112 6.52086 11.6627 5.96503C11.6469 5.97513 11.6305 5.9845 11.6134 5.99306L6.90332 8.34809C6.88637 8.35657 6.86917 8.36404 6.8518 8.37053C6.9007 8.56344 6.92668 8.76548 6.92668 8.9736C6.92668 9.18171 6.9007 9.38375 6.8518 9.57666C6.86917 9.58315 6.88637 9.59062 6.90332 9.5991L11.6134 11.9541C11.6305 11.9627 11.6469 11.9721 11.6627 11.9822C12.1112 11.4263 12.798 11.0708 13.5678 11.0708C14.9191 11.0708 16.0146 12.1662 16.0146 13.5175C16.0146 14.8688 14.9191 15.9643 13.5678 15.9643C12.2165 15.9643 11.1211 14.8688 11.1211 13.5175C11.1211 13.3094 11.1471 13.1074 11.196 12.9145C11.1786 12.908 11.1614 12.9005 11.1444 12.892L6.43437 10.537C6.41726 10.5284 6.40083 10.5191 6.38508 10.509C5.93657 11.0648 5.24977 11.4203 4.47994 11.4203C3.12865 11.4203 2.0332 10.3249 2.0332 8.9736C2.0332 7.6223 3.12865 6.52686 4.47994 6.52686C5.24978 6.52686 5.93657 6.88239 6.38508 7.43822C6.40083 7.42811 6.41726 7.41875 6.43437 7.41019L11.1444 5.05516C11.1614 5.04668 11.1786 5.03921 11.196 5.03272C11.1471 4.83981 11.1211 4.63776 11.1211 4.42965C11.1211 3.07835 12.2165 1.98291 13.5678 1.98291C14.9191 1.98291 16.0146 3.07835 16.0146 4.42965Z" fill="#570068"/>
</svg>
