<svg width="16" height="16" viewBox="0 0 16 16" fill="none" xmlns="http://www.w3.org/2000/svg">
<g id="Layer_1" clip-path="url(#clip0_106_1938)">
<path id="Vector" d="M15.9993 8.09964C15.9246 12.5209 12.3284 16.0525 7.88634 15.9994C3.63386 15.9486 -0.0655811 12.4403 0.000881956 7.86537C0.0646057 3.4744 3.6947 -0.0587985 8.08371 0.000741604C12.6241 0.0624442 16.0542 3.7659 15.9993 8.09964ZM7.90248 0.71926C3.79692 0.772456 0.63365 4.20041 0.723902 8.12429C0.816892 12.1675 4.18257 15.4363 8.3115 15.2714C12.2089 15.1157 15.3667 11.8619 15.2849 7.84245C15.2033 3.83856 11.9014 0.654674 7.90263 0.71926H7.90248Z" fill="#FDFCFF"/>
<path id="Vector_2" d="M7.57246 5.94807C7.57246 5.44784 7.57108 4.94761 7.57314 4.44738C7.57417 4.20807 7.72617 4.03447 7.95365 4.00359C8.16877 3.97443 8.37755 4.12607 8.4177 4.34428C8.42799 4.40003 8.42988 4.45784 8.43005 4.5148C8.43074 5.48952 8.43022 6.46425 8.43074 7.43915C8.43074 7.58462 8.41392 7.56986 8.56592 7.56986C9.55492 7.57021 10.5441 7.56969 11.5331 7.57038C11.7865 7.57055 11.9687 7.72546 11.9972 7.9603C12.0241 8.18211 11.8565 8.39552 11.6329 8.42193C11.5849 8.4276 11.536 8.42759 11.4875 8.42759C10.507 8.42794 9.52645 8.42777 8.54602 8.42777C8.46894 8.42777 8.43034 8.46694 8.43022 8.54528C8.43022 9.53716 8.43039 10.529 8.43005 11.5211C8.43005 11.7647 8.31597 11.9244 8.10221 11.9848C7.86187 12.0525 7.61003 11.8865 7.57863 11.6379C7.57263 11.5899 7.57263 11.541 7.57263 11.4924C7.57228 10.5119 7.57246 9.53149 7.57228 8.55094C7.57228 8.46905 7.53237 8.42805 7.45254 8.42794C6.4577 8.42794 5.46304 8.42811 4.4682 8.42759C4.23643 8.42759 4.08255 8.31969 4.01907 8.11692C3.94513 7.88053 4.09336 7.63111 4.33936 7.58324C4.39769 7.57192 4.45859 7.57038 4.51847 7.57021C5.49889 7.56952 6.47949 7.56969 7.45992 7.56969C7.57194 7.56969 7.57228 7.56935 7.57228 7.45733C7.57228 6.95418 7.57228 6.45104 7.57228 5.94807H7.57246Z" fill="#FDFCFF"/>
</g>
<defs>
<clipPath id="clip0_106_1938">
<rect width="16" height="16" fill="white"/>
</clipPath>
</defs>
</svg>
