<svg width="12" height="7" viewBox="0 0 12 7" fill="none" xmlns="http://www.w3.org/2000/svg">
<g id="Vector">
<path d="M5.99942 1.00027C4.1768 1.00027 2.35418 1.00027 0.531693 1.00027C0.285211 1.00027 0.101099 0.875031 0.0263548 0.657805C-0.0797625 0.349588 0.147721 0.0153734 0.473197 0.00124987C0.493946 0.00037496 0.514819 0.000499946 0.535693 0.000499946C4.1788 0.00037496 7.82191 0.000499946 11.465 0C11.694 0 11.8645 0.0942399 11.958 0.305217C12.0993 0.624058 11.8657 0.988644 11.5171 0.999643C11.488 1.00052 11.4588 1.00027 11.4296 1.00027C9.61953 1.00027 7.80941 1.00027 5.99942 1.00027Z" fill="black"/>
<path d="M6.00307 3.00005C7.16324 3.00005 8.3234 2.9998 9.48357 3.0003C9.7413 3.0003 9.93903 3.16016 9.98953 3.40564C10.0494 3.6971 9.82742 3.98395 9.53006 3.99895C9.50932 3.99995 9.48844 3.99995 9.46757 3.99995C7.15561 3.99995 4.84366 3.99995 2.5317 4.0002C2.30259 4.0002 2.1326 3.90358 2.04036 3.69235C1.90062 3.37264 2.13623 3.00743 2.4852 3.0013C2.74543 2.99668 3.00591 3.00005 3.26627 3.00005C4.17858 3.00005 5.09089 3.00005 6.00307 3.00005Z" fill="black"/>
<path d="M5.99907 6.9995C5.49923 6.9995 4.99939 7.001 4.49968 6.99887C4.2142 6.99762 3.99472 6.76865 4.00047 6.48481C4.00572 6.22646 4.22033 6.00748 4.47931 6.00086C4.62705 5.99711 4.77504 5.99973 4.9229 5.99973C5.77884 5.99973 6.63478 5.99911 7.49071 6.00011C7.77494 6.00048 7.99668 6.21708 7.99943 6.49243C8.0023 6.7724 7.78207 6.99775 7.49859 6.99887C6.99875 7.00087 6.49879 6.9995 5.99907 6.9995Z" fill="black"/>
</g>
</svg>
