<svg width="16" height="16" viewBox="0 0 16 16" fill="none" xmlns="http://www.w3.org/2000/svg">
<g opacity="0.7" clip-path="url(#clip0_102_9369)">
<path fill-rule="evenodd" clip-rule="evenodd" d="M1.82032 7.66907C1.82032 10.8679 4.41344 13.461 7.61222 13.461C10.811 13.461 13.4041 10.8679 13.4041 7.66907C13.4041 4.4703 10.811 1.87717 7.61222 1.87717C4.41344 1.87717 1.82032 4.4703 1.82032 7.66907ZM7.61222 14.4539C3.86508 14.4539 0.827423 11.4162 0.827423 7.66907C0.827423 3.92193 3.86508 0.884277 7.61222 0.884277C11.3594 0.884277 14.397 3.92193 14.397 7.66907C14.397 9.36396 13.7755 10.9137 12.7481 12.1028L14.9135 14.2683C15.1074 14.4622 15.1074 14.7765 14.9135 14.9704C14.7197 15.1643 14.4053 15.1643 14.2115 14.9704L12.046 12.8049C10.8568 13.8324 9.3071 14.4539 7.61222 14.4539Z" fill="#6E6D85" stroke="#6E6D85" stroke-width="0.3" stroke-linecap="round" stroke-linejoin="round"/>
</g>
<defs>
<clipPath id="clip0_102_9369">
<rect width="15.8864" height="15.8864" fill="white" transform="translate(0 0.0568848)"/>
</clipPath>
</defs>
</svg>
