<svg width="144" height="64" viewBox="0 0 144 64" fill="none" xmlns="http://www.w3.org/2000/svg">
<path d="M23.4372 7.5361V33H19.3342L7.33579 15.6552H7.12442V33H2.51158V7.5361H6.63951L18.6255 24.8933H18.8493V7.5361H23.4372ZM45.5223 15.6676C45.3151 14.9962 45.0291 14.3953 44.6644 13.8648C44.308 13.326 43.8769 12.8659 43.3713 12.4847C42.874 12.1034 42.302 11.8174 41.6555 11.6267C41.0089 11.4278 40.3044 11.3283 39.5418 11.3283C38.1741 11.3283 36.9556 11.6723 35.8863 12.3603C34.817 13.0483 33.9757 14.0596 33.3623 15.3941C32.7572 16.7203 32.4547 18.3367 32.4547 20.2432C32.4547 22.1662 32.7572 23.795 33.3623 25.1296C33.9674 26.4641 34.8087 27.4795 35.8863 28.1758C36.9639 28.8638 38.2155 29.2078 39.6413 29.2078C40.9343 29.2078 42.0534 28.9591 42.9983 28.4618C43.9515 27.9644 44.6851 27.2598 45.199 26.3481C45.713 25.428 45.9699 24.3504 45.9699 23.1153L47.0143 23.277H40.1013V19.6712H50.4336V22.7299C50.4336 24.9099 49.9694 26.7957 49.041 28.3872C48.1126 29.9786 46.8361 31.2054 45.2115 32.0675C43.5868 32.9213 41.7218 33.3481 39.6164 33.3481C37.2706 33.3481 35.2108 32.8218 33.4369 31.7691C31.6713 30.7081 30.2912 29.2036 29.2965 27.2557C28.3101 25.2995 27.8169 22.9786 27.8169 20.2929C27.8169 18.2372 28.1071 16.4012 28.6873 14.7849C29.2758 13.1685 30.0964 11.7967 31.1491 10.6694C32.2018 9.53375 33.4369 8.6717 34.8543 8.08317C36.2718 7.48636 37.8135 7.18796 39.4796 7.18796C40.8888 7.18796 42.2026 7.39519 43.421 7.80964C44.6395 8.2158 45.7213 8.79603 46.6662 9.55033C47.6194 10.3046 48.4028 11.1998 49.0161 12.236C49.6295 13.2721 50.0316 14.416 50.2222 15.6676H45.5223ZM68.7326 14.5362C68.6166 13.4503 68.1275 12.6048 67.2655 11.9997C66.4117 11.3946 65.301 11.0921 63.9333 11.0921C62.9718 11.0921 62.147 11.2372 61.459 11.5273C60.771 11.8174 60.2447 12.2111 59.88 12.7085C59.5152 13.2058 59.3287 13.7736 59.3204 14.4119C59.3204 14.9423 59.4406 15.4024 59.681 15.792C59.9297 16.1816 60.2654 16.5131 60.6881 16.7867C61.1109 17.0519 61.5792 17.2757 62.0931 17.4581C62.607 17.6404 63.1251 17.7938 63.6473 17.9181L66.0346 18.5149C66.9961 18.7387 67.9203 19.0413 68.8072 19.4226C69.7025 19.8039 70.5023 20.2846 71.2069 20.8649C71.9198 21.4451 72.4834 22.1455 72.8979 22.9661C73.3123 23.7867 73.5196 24.7483 73.5196 25.8507C73.5196 27.3427 73.1383 28.6565 72.3757 29.7921C71.6131 30.9195 70.5106 31.8022 69.0683 32.4405C67.6343 33.0705 65.8978 33.3854 63.8587 33.3854C61.8776 33.3854 60.1576 33.0787 58.6988 32.4654C57.2482 31.852 56.1126 30.9568 55.292 29.7797C54.4797 28.6027 54.0403 27.1687 53.974 25.4777H58.5123C58.5786 26.3646 58.8521 27.1024 59.3329 27.6909C59.8136 28.2794 60.4395 28.7187 61.2103 29.0088C61.9895 29.2989 62.8599 29.444 63.8214 29.444C64.8244 29.444 65.703 29.2948 66.4573 28.9964C67.2199 28.6897 67.8167 28.267 68.2477 27.7282C68.6788 27.1811 68.8984 26.5428 68.9067 25.8134C68.8984 25.1503 68.7036 24.6032 68.3223 24.1722C67.941 23.7329 67.4064 23.3681 66.7184 23.078C66.0387 22.7796 65.243 22.5144 64.3312 22.2823L61.4341 21.5363C59.337 20.9975 57.6792 20.181 56.4607 19.0869C55.2505 17.9844 54.6454 16.5214 54.6454 14.6978C54.6454 13.1975 55.0516 11.8837 55.8639 10.7564C56.6845 9.62908 57.7994 8.75459 59.2085 8.13291C60.6177 7.50294 62.2133 7.18796 63.9955 7.18796C65.8025 7.18796 67.3857 7.50294 68.7451 8.13291C70.1128 8.75459 71.1862 9.62079 71.9654 10.7315C72.7445 11.834 73.1465 13.1022 73.1714 14.5362H68.7326Z" fill="black"/>
<path d="M11.6378 45.268V58H10.1458L3.20785 48.0034H3.08352V58H1.54176V45.268H3.03378L9.99657 55.2895H10.1209V45.268H11.6378ZM18.5275 58.1989C17.6075 58.1989 16.8138 57.9959 16.1465 57.5897C15.4834 57.1794 14.9715 56.6074 14.611 55.8739C14.2545 55.1361 14.0763 54.2782 14.0763 53.3001C14.0763 52.322 14.2545 51.46 14.611 50.7139C14.9715 49.9638 15.473 49.3794 16.1154 48.9608C16.762 48.5381 17.5163 48.3267 18.3783 48.3267C18.8757 48.3267 19.3668 48.4096 19.8517 48.5754C20.3366 48.7412 20.778 49.0105 21.1759 49.3836C21.5738 49.7524 21.8908 50.2415 22.127 50.8507C22.3633 51.46 22.4814 52.2101 22.4814 53.1012V53.7229H15.1207V52.4546H20.9894C20.9894 51.9159 20.8816 51.4351 20.6661 51.0123C20.4547 50.5896 20.1522 50.256 19.7585 50.0114C19.3689 49.7669 18.9088 49.6447 18.3783 49.6447C17.794 49.6447 17.2883 49.7897 16.8614 50.0798C16.4387 50.3658 16.1134 50.7388 15.8854 51.1989C15.6575 51.6589 15.5435 52.1521 15.5435 52.6784V53.5239C15.5435 54.2451 15.6678 54.8564 15.9165 55.3579C16.1693 55.8552 16.5195 56.2344 16.9671 56.4955C17.4147 56.7525 17.9349 56.881 18.5275 56.881C18.913 56.881 19.2611 56.8271 19.572 56.7193C19.8869 56.6074 20.1584 56.4417 20.3864 56.222C20.6143 55.9982 20.7904 55.7205 20.9148 55.389L22.3322 55.7868C22.183 56.2676 21.9323 56.6903 21.58 57.0551C21.2277 57.4156 20.7925 57.6975 20.2744 57.9005C19.7564 58.0995 19.1741 58.1989 18.5275 58.1989ZM25.5509 48.451L27.8387 52.3552L30.1265 48.451H31.8174L28.7339 53.2255L31.8174 58H30.1265L27.8387 54.2948L25.5509 58H23.86L26.8938 53.2255L23.86 48.451H25.5509ZM38.0637 48.451V49.6944H33.1152V48.451H38.0637ZM34.5575 46.1633H36.0246V55.2646C36.0246 55.6791 36.0847 55.9899 36.2049 56.1971C36.3293 56.4002 36.4868 56.537 36.6774 56.6074C36.8722 56.6738 37.0773 56.7069 37.2929 56.7069C37.4545 56.7069 37.5871 56.6986 37.6907 56.682C37.7943 56.6613 37.8772 56.6447 37.9394 56.6323L38.2378 57.9503C38.1383 57.9876 37.9995 58.0249 37.8213 58.0622C37.6431 58.1036 37.4172 58.1243 37.1437 58.1243C36.7292 58.1243 36.323 58.0352 35.9252 57.857C35.5314 57.6788 35.204 57.4073 34.9429 57.0426C34.686 56.6779 34.5575 56.2179 34.5575 55.6625V46.1633ZM54.0968 49.2468C53.96 48.8282 53.7797 48.4531 53.5559 48.1215C53.3363 47.7858 53.0731 47.4999 52.7664 47.2636C52.4639 47.0274 52.1199 46.8471 51.7344 46.7228C51.349 46.5984 50.9262 46.5363 50.4662 46.5363C49.7119 46.5363 49.026 46.7311 48.4085 47.1206C47.7909 47.5102 47.2998 48.0842 46.9351 48.8427C46.5704 49.6011 46.388 50.5316 46.388 51.634C46.388 52.7365 46.5724 53.6669 46.9413 54.4254C47.3102 55.1838 47.8096 55.7578 48.4395 56.1474C49.0695 56.537 49.7782 56.7318 50.5657 56.7318C51.2951 56.7318 51.9375 56.5764 52.4929 56.2655C53.0524 55.9505 53.4876 55.5071 53.7984 54.9351C54.1134 54.359 54.2709 53.6814 54.2709 52.9022L54.7433 53.0017H50.9138V51.634H55.7629V53.0017C55.7629 54.0503 55.5391 54.9621 55.0915 55.7371C54.648 56.5121 54.0346 57.1131 53.2513 57.54C52.4722 57.9627 51.5769 58.1741 50.5657 58.1741C49.4384 58.1741 48.4478 57.9088 47.5941 57.3783C46.7444 56.8478 46.0813 56.0935 45.6047 55.1154C45.1322 54.1373 44.896 52.9768 44.896 51.634C44.896 50.6269 45.0307 49.7213 45.3001 48.9173C45.5736 48.1091 45.959 47.4211 46.4564 46.8533C46.9537 46.2855 47.5422 45.8504 48.2219 45.5478C48.9017 45.2453 49.6497 45.094 50.4662 45.094C51.1376 45.094 51.7634 45.1955 52.3437 45.3986C52.928 45.5975 53.4482 45.8814 53.9041 46.2503C54.3641 46.615 54.7475 47.0523 55.0542 47.562C55.3609 48.0677 55.5722 48.6293 55.6883 49.2468H54.0968ZM62.2081 58.1989C61.2881 58.1989 60.4944 57.9959 59.8271 57.5897C59.164 57.1794 58.6521 56.6074 58.2916 55.8739C57.9351 55.1361 57.7569 54.2782 57.7569 53.3001C57.7569 52.322 57.9351 51.46 58.2916 50.7139C58.6521 49.9638 59.1536 49.3794 59.796 48.9608C60.4426 48.5381 61.1969 48.3267 62.0589 48.3267C62.5563 48.3267 63.0474 48.4096 63.5323 48.5754C64.0172 48.7412 64.4586 49.0105 64.8565 49.3836C65.2544 49.7524 65.5714 50.2415 65.8076 50.8507C66.0439 51.46 66.162 52.2101 66.162 53.1012V53.7229H58.8013V52.4546H64.67C64.67 51.9159 64.5622 51.4351 64.3467 51.0123C64.1353 50.5896 63.8328 50.256 63.4391 50.0114C63.0495 49.7669 62.5894 49.6447 62.0589 49.6447C61.4746 49.6447 60.9689 49.7897 60.542 50.0798C60.1193 50.3658 59.794 50.7388 59.566 51.1989C59.3381 51.6589 59.2241 52.1521 59.2241 52.6784V53.5239C59.2241 54.2451 59.3484 54.8564 59.5971 55.3579C59.8499 55.8552 60.2001 56.2344 60.6477 56.4955C61.0953 56.7525 61.6155 56.881 62.2081 56.881C62.5936 56.881 62.9417 56.8271 63.2526 56.7193C63.5675 56.6074 63.839 56.4417 64.0669 56.222C64.2949 55.9982 64.471 55.7205 64.5954 55.389L66.0128 55.7868C65.8636 56.2676 65.6129 56.6903 65.2606 57.0551C64.9083 57.4156 64.4731 57.6975 63.955 57.9005C63.437 58.0995 62.8547 58.1989 62.2081 58.1989ZM69.861 52.2557V58H68.3938V48.451H69.8112V49.9431H69.9356C70.1594 49.4582 70.4992 49.0686 70.9551 48.7743C71.411 48.4759 71.9996 48.3267 72.7207 48.3267C73.3672 48.3267 73.933 48.4593 74.4179 48.7246C74.9028 48.9857 75.2799 49.3836 75.5493 49.9182C75.8187 50.4487 75.9534 51.1201 75.9534 51.9324V58H74.4863V52.0319C74.4863 51.2817 74.2915 50.6974 73.9019 50.2788C73.5123 49.856 72.9777 49.6447 72.298 49.6447C71.8296 49.6447 71.411 49.7462 71.0422 49.9493C70.6775 50.1524 70.3894 50.4487 70.178 50.8383C69.9667 51.2279 69.861 51.7003 69.861 52.2557ZM83.757 58V45.268H91.3912V46.6357H85.2988V50.9377H90.8193V52.3054H85.2988V58H83.757ZM93.8329 58V48.451H95.3V58H93.8329ZM94.5789 46.8595C94.2929 46.8595 94.0463 46.7621 93.8391 46.5674C93.636 46.3726 93.5345 46.1384 93.5345 45.8649C93.5345 45.5913 93.636 45.3572 93.8391 45.1624C94.0463 44.9676 94.2929 44.8702 94.5789 44.8702C94.8648 44.8702 95.1094 44.9676 95.3125 45.1624C95.5197 45.3572 95.6233 45.5913 95.6233 45.8649C95.6233 46.1384 95.5197 46.3726 95.3125 46.5674C95.1094 46.7621 94.8648 46.8595 94.5789 46.8595ZM99.4544 52.2557V58H97.9872V48.451H99.4046V49.9431H99.529C99.7528 49.4582 100.093 49.0686 100.549 48.7743C101.004 48.4759 101.593 48.3267 102.314 48.3267C102.961 48.3267 103.526 48.4593 104.011 48.7246C104.496 48.9857 104.873 49.3836 105.143 49.9182C105.412 50.4487 105.547 51.1201 105.547 51.9324V58H104.08V52.0319C104.08 51.2817 103.885 50.6974 103.495 50.2788C103.106 49.856 102.571 49.6447 101.891 49.6447C101.423 49.6447 101.004 49.7462 100.636 49.9493C100.271 50.1524 99.9828 50.4487 99.7714 50.8383C99.5601 51.2279 99.4544 51.7003 99.4544 52.2557ZM112.381 48.451V49.6944H107.432V48.451H112.381ZM108.874 46.1633H110.341V55.2646C110.341 55.6791 110.402 55.9899 110.522 56.1971C110.646 56.4002 110.804 56.537 110.994 56.6074C111.189 56.6738 111.394 56.7069 111.61 56.7069C111.771 56.7069 111.904 56.6986 112.008 56.682C112.111 56.6613 112.194 56.6447 112.256 56.6323L112.555 57.9503C112.455 57.9876 112.316 58.0249 112.138 58.0622C111.96 58.1036 111.734 58.1243 111.461 58.1243C111.046 58.1243 110.64 58.0352 110.242 57.857C109.848 57.6788 109.521 57.4073 109.26 57.0426C109.003 56.6779 108.874 56.2179 108.874 55.6625V46.1633ZM118.489 58.1989C117.568 58.1989 116.775 57.9959 116.108 57.5897C115.444 57.1794 114.933 56.6074 114.572 55.8739C114.216 55.1361 114.037 54.2782 114.037 53.3001C114.037 52.322 114.216 51.46 114.572 50.7139C114.933 49.9638 115.434 49.3794 116.076 48.9608C116.723 48.5381 117.477 48.3267 118.339 48.3267C118.837 48.3267 119.328 48.4096 119.813 48.5754C120.298 48.7412 120.739 49.0105 121.137 49.3836C121.535 49.7524 121.852 50.2415 122.088 50.8507C122.324 51.46 122.442 52.2101 122.442 53.1012V53.7229H115.082V52.4546H120.95C120.95 51.9159 120.843 51.4351 120.627 51.0123C120.416 50.5896 120.113 50.256 119.719 50.0114C119.33 49.7669 118.87 49.6447 118.339 49.6447C117.755 49.6447 117.249 49.7897 116.822 50.0798C116.4 50.3658 116.074 50.7388 115.846 51.1989C115.618 51.6589 115.505 52.1521 115.505 52.6784V53.5239C115.505 54.2451 115.629 54.8564 115.878 55.3579C116.13 55.8552 116.481 56.2344 116.928 56.4955C117.376 56.7525 117.896 56.881 118.489 56.881C118.874 56.881 119.222 56.8271 119.533 56.7193C119.848 56.6074 120.119 56.4417 120.347 56.222C120.575 55.9982 120.751 55.7205 120.876 55.389L122.293 55.7868C122.144 56.2676 121.893 56.6903 121.541 57.0551C121.189 57.4156 120.754 57.6975 120.235 57.9005C119.717 58.0995 119.135 58.1989 118.489 58.1989ZM128.554 58.1989C127.658 58.1989 126.887 57.9876 126.241 57.5648C125.594 57.1421 125.097 56.5598 124.749 55.8179C124.401 55.076 124.227 54.2285 124.227 53.2753C124.227 52.3054 124.405 51.4496 124.761 50.7077C125.122 49.9617 125.623 49.3794 126.266 48.9608C126.912 48.5381 127.667 48.3267 128.529 48.3267C129.2 48.3267 129.805 48.451 130.344 48.6997C130.883 48.9484 131.324 49.2965 131.668 49.7441C132.012 50.1917 132.226 50.7139 132.308 51.3108H130.841C130.729 50.8756 130.481 50.4901 130.095 50.1544C129.714 49.8146 129.2 49.6447 128.554 49.6447C127.982 49.6447 127.48 49.7939 127.049 50.0923C126.622 50.3865 126.289 50.803 126.048 51.3418C125.812 51.8765 125.694 52.5044 125.694 53.2255C125.694 53.9632 125.81 54.6056 126.042 55.1527C126.278 55.6998 126.61 56.1246 127.037 56.4272C127.468 56.7297 127.973 56.881 128.554 56.881C128.935 56.881 129.281 56.8147 129.592 56.682C129.903 56.5494 130.166 56.3588 130.381 56.1101C130.597 55.8614 130.75 55.563 130.841 55.2149H132.308C132.226 55.7785 132.02 56.2862 131.693 56.738C131.37 57.1856 130.941 57.542 130.406 57.8073C129.876 58.0684 129.258 58.1989 128.554 58.1989ZM135.92 52.2557V58H134.453V45.268H135.92V49.9431H136.045C136.269 49.4499 136.604 49.0582 137.052 48.7681C137.504 48.4738 138.105 48.3267 138.855 48.3267C139.505 48.3267 140.075 48.4573 140.564 48.7184C141.053 48.9753 141.433 49.3711 141.702 49.9058C141.976 50.4363 142.112 51.1118 142.112 51.9324V58H140.645V52.0319C140.645 51.2735 140.448 50.687 140.055 50.2726C139.665 49.854 139.124 49.6447 138.432 49.6447C137.951 49.6447 137.52 49.7462 137.139 49.9493C136.762 50.1524 136.463 50.4487 136.244 50.8383C136.028 51.2279 135.92 51.7003 135.92 52.2557Z" fill="black" fill-opacity="0.66"/>
</svg>
