<svg width="28" height="28" viewBox="0 0 28 28" fill="none" xmlns="http://www.w3.org/2000/svg">
<path d="M18.0714 11.8096V10.0533C18.0714 7.8176 16.2457 6 14 6C11.7543 6 9.92857 7.8176 9.92857 10.0533V11.8096C8.64457 12.0084 8 12.8429 8 14.32V19.44C8 21.1467 8.85714 22 10.5714 22H17.4286C19.1429 22 20 21.1467 20 19.44V14.32C20 12.8429 19.3554 12.0084 18.0714 11.8096ZM14.6429 16.869V18.5867C14.6429 18.9399 14.3549 19.2267 14 19.2267C13.6451 19.2267 13.3571 18.9399 13.3571 18.5867V16.8475C13.1103 16.6521 12.9413 16.3637 12.9413 16.0267C12.9413 15.4379 13.4172 14.96 14.0086 14.96H14.0172C14.6086 14.96 15.0886 15.4379 15.0886 16.0267C15.0886 16.3782 14.906 16.6753 14.6429 16.869ZM16.7857 11.76H11.2143V10.0533C11.2143 8.52587 12.4657 7.28 14 7.28C15.5343 7.28 16.7857 8.52587 16.7857 10.0533V11.76Z" fill="#9988A6"/>
</svg>
