<svg width="28" height="28" viewBox="0 0 28 28" fill="none" xmlns="http://www.w3.org/2000/svg">
<path d="M6.2207 10.1111C6.2207 8.39289 7.6136 7 9.33181 7H18.6651C20.3834 7 21.7763 8.39289 21.7763 10.1111V17.8889C21.7763 19.6071 20.3834 21 18.6651 21H9.33181C7.6136 21 6.2207 19.6071 6.2207 17.8889V10.1111Z" fill="#9988A6"/>
<path fill-rule="evenodd" clip-rule="evenodd" d="M8.84657 10.5655C9.02527 10.2974 9.38745 10.225 9.65551 10.4037L12.5964 12.3643C13.4455 12.9304 14.5517 12.9304 15.4008 12.3643L18.3417 10.4037C18.6098 10.225 18.9719 10.2974 19.1506 10.5655C19.3293 10.8335 19.2569 11.1957 18.9888 11.3744L16.0479 13.335C14.8069 14.1624 13.1903 14.1624 11.9493 13.335L9.00836 11.3744C8.7403 11.1957 8.66786 10.8335 8.84657 10.5655Z" fill="#E6E8F6"/>
</svg>
