<svg width="82" height="37" viewBox="0 0 82 37" fill="none" xmlns="http://www.w3.org/2000/svg">
<path d="M13.2955 5.45455V20H11.5909L3.66477 8.57955H3.52273V20H1.76136V5.45455H3.46591L11.4205 16.9034H11.5625V5.45455H13.2955ZM26.7631 10C26.6069 9.52178 26.4009 9.09328 26.1452 8.71449C25.8943 8.33097 25.5936 8.00426 25.2433 7.73438C24.8976 7.46449 24.5046 7.25852 24.0643 7.11648C23.6239 6.97443 23.141 6.90341 22.6154 6.90341C21.7537 6.90341 20.9701 7.12595 20.2646 7.57102C19.5591 8.0161 18.998 8.67188 18.5813 9.53835C18.1647 10.4048 17.9563 11.4678 17.9563 12.7273C17.9563 13.9867 18.167 15.0497 18.5884 15.9162C19.0098 16.7827 19.5804 17.4384 20.3001 17.8835C21.0198 18.3286 21.8294 18.5511 22.729 18.5511C23.5624 18.5511 24.2963 18.3736 24.9308 18.0185C25.57 17.6586 26.0671 17.152 26.4222 16.4986C26.7821 15.8404 26.962 15.0663 26.962 14.1761L27.5018 14.2898H23.1268V12.7273H28.6665V14.2898C28.6665 15.4877 28.4109 16.5294 27.8995 17.4148C27.3929 18.3002 26.6921 18.9867 25.7972 19.4744C24.9071 19.9574 23.8844 20.1989 22.729 20.1989C21.4412 20.1989 20.3095 19.8958 19.3342 19.2898C18.3635 18.6837 17.6059 17.822 17.0614 16.7045C16.5217 15.5871 16.2518 14.2614 16.2518 12.7273C16.2518 11.5767 16.4057 10.5421 16.7134 9.62358C17.0259 8.70028 17.4663 7.9143 18.0344 7.26562C18.6026 6.61695 19.275 6.11979 20.0515 5.77415C20.828 5.4285 21.6826 5.25568 22.6154 5.25568C23.3825 5.25568 24.0974 5.37169 24.7603 5.60369C25.4279 5.83097 26.0221 6.1553 26.543 6.5767C27.0685 6.99337 27.5065 7.4929 27.8569 8.07528C28.2073 8.65294 28.4487 9.29451 28.5813 10H26.7631ZM39.6378 9.09091C39.5526 8.37121 39.2069 7.8125 38.6009 7.41477C37.9948 7.01705 37.2514 6.81818 36.3707 6.81818C35.7268 6.81818 35.1634 6.92235 34.6804 7.13068C34.2022 7.33901 33.8281 7.62547 33.5582 7.99006C33.2931 8.35464 33.1605 8.76894 33.1605 9.23295C33.1605 9.62121 33.2528 9.95502 33.4375 10.2344C33.6269 10.509 33.8684 10.7386 34.1619 10.9233C34.4555 11.1032 34.7633 11.2524 35.0852 11.3707C35.4072 11.4844 35.7031 11.5767 35.973 11.6477L37.4503 12.0455C37.8291 12.1449 38.2505 12.2822 38.7145 12.4574C39.1832 12.6326 39.6307 12.8717 40.0568 13.1747C40.4877 13.473 40.8428 13.8565 41.1222 14.3253C41.4015 14.794 41.5412 15.3693 41.5412 16.0511C41.5412 16.8371 41.3352 17.5473 40.9233 18.1818C40.5161 18.8163 39.9195 19.3205 39.1335 19.6946C38.3523 20.0687 37.4029 20.2557 36.2855 20.2557C35.2438 20.2557 34.3419 20.0876 33.5795 19.7514C32.822 19.4152 32.2254 18.9465 31.7898 18.3452C31.3589 17.7438 31.1151 17.0455 31.0582 16.25H32.8764C32.9238 16.7992 33.1084 17.2538 33.4304 17.6136C33.7571 17.9687 34.169 18.2339 34.6662 18.4091C35.1681 18.5795 35.7079 18.6648 36.2855 18.6648C36.9579 18.6648 37.5616 18.5559 38.0966 18.3381C38.6316 18.1155 39.0554 17.8078 39.3679 17.4148C39.6804 17.017 39.8366 16.553 39.8366 16.0227C39.8366 15.5398 39.7017 15.1468 39.4318 14.8438C39.1619 14.5407 38.8068 14.2945 38.3665 14.1051C37.9261 13.9157 37.4503 13.75 36.9389 13.608L35.1491 13.0966C34.0128 12.7699 33.1132 12.3035 32.4503 11.6974C31.7874 11.0914 31.456 10.2983 31.456 9.31818C31.456 8.50379 31.6761 7.79356 32.1165 7.1875C32.5616 6.5767 33.1581 6.10322 33.9062 5.76705C34.6591 5.42614 35.4995 5.25568 36.4276 5.25568C37.3651 5.25568 38.1984 5.42377 38.9276 5.75994C39.6567 6.09138 40.2344 6.54593 40.6605 7.12358C41.0914 7.70123 41.3187 8.35701 41.3423 9.09091H39.6378Z" fill="#F3FDFF"/>
<path d="M6.64773 27.7273V35H5.79545L1.83239 29.2898H1.76136V35H0.880682V27.7273H1.73295L5.71023 33.4517H5.78125V27.7273H6.64773ZM10.5833 35.1136C10.0577 35.1136 9.60434 34.9976 9.22319 34.7656C8.8444 34.5312 8.55202 34.2045 8.34606 33.7855C8.14246 33.3641 8.04066 32.8741 8.04066 32.3153C8.04066 31.7566 8.14246 31.2642 8.34606 30.8381C8.55202 30.4096 8.83848 30.0758 9.20543 29.8366C9.57475 29.5952 10.0056 29.4744 10.498 29.4744C10.7821 29.4744 11.0627 29.5218 11.3397 29.6165C11.6167 29.7112 11.8688 29.8651 12.0961 30.0781C12.3233 30.2888 12.5044 30.5682 12.6394 30.9162C12.7743 31.2642 12.8418 31.6927 12.8418 32.2017V32.5568H8.63725V31.8324H11.9895C11.9895 31.5246 11.928 31.25 11.8049 31.0085C11.6841 30.767 11.5113 30.5765 11.2864 30.4368C11.0639 30.2971 10.8011 30.2273 10.498 30.2273C10.1642 30.2273 9.87541 30.3101 9.63157 30.4759C9.39009 30.6392 9.20425 30.8523 9.07404 31.1151C8.94383 31.3778 8.87873 31.6596 8.87873 31.9602V32.4432C8.87873 32.8551 8.94975 33.2043 9.0918 33.4908C9.23621 33.7749 9.43626 33.9915 9.69194 34.1406C9.94762 34.2874 10.2447 34.3608 10.5833 34.3608C10.8034 34.3608 11.0023 34.33 11.1799 34.2685C11.3598 34.2045 11.5149 34.1098 11.6451 33.9844C11.7753 33.8565 11.8759 33.6979 11.9469 33.5085L12.7566 33.7358C12.6713 34.0104 12.5281 34.2519 12.3269 34.4602C12.1257 34.6662 11.8771 34.8272 11.5811 34.9432C11.2852 35.0568 10.9526 35.1136 10.5833 35.1136ZM14.5952 29.5455L15.902 31.7756L17.2088 29.5455H18.1747L16.4134 32.2727L18.1747 35H17.2088L15.902 32.8835L14.5952 35H13.6293L15.3622 32.2727L13.6293 29.5455H14.5952ZM21.7427 29.5455V30.2557H18.916V29.5455H21.7427ZM19.7399 28.2386H20.5779V33.4375C20.5779 33.6742 20.6123 33.8518 20.6809 33.9702C20.752 34.0862 20.8419 34.1643 20.9508 34.2045C21.0621 34.2424 21.1793 34.2614 21.3024 34.2614C21.3947 34.2614 21.4705 34.2566 21.5297 34.2472C21.5888 34.2353 21.6362 34.2259 21.6717 34.2188L21.8422 34.9716C21.7853 34.9929 21.706 35.0142 21.6042 35.0355C21.5024 35.0592 21.3734 35.071 21.2172 35.071C20.9804 35.071 20.7484 35.0201 20.5211 34.9183C20.2962 34.8165 20.1092 34.6615 19.96 34.4531C19.8133 34.2448 19.7399 33.982 19.7399 33.6648V28.2386ZM30.9011 30C30.823 29.7609 30.72 29.5466 30.5922 29.3572C30.4667 29.1655 30.3163 29.0021 30.1412 28.8672C29.9683 28.7322 29.7718 28.6293 29.5517 28.5582C29.3315 28.4872 29.09 28.4517 28.8272 28.4517C28.3964 28.4517 28.0046 28.563 27.6518 28.7855C27.2991 29.008 27.0185 29.3359 26.8102 29.7692C26.6019 30.2024 26.4977 30.7339 26.4977 31.3636C26.4977 31.9934 26.603 32.5249 26.8137 32.9581C27.0244 33.3913 27.3097 33.7192 27.6696 33.9418C28.0294 34.1643 28.4342 34.2756 28.8841 34.2756C29.3007 34.2756 29.6677 34.1868 29.9849 34.0092C30.3045 33.8293 30.5531 33.576 30.7306 33.2493C30.9106 32.9202 31.0005 32.5331 31.0005 32.0881L31.2704 32.1449H29.0829V31.3636H31.8528V32.1449C31.8528 32.7438 31.725 33.2647 31.4693 33.7074C31.216 34.1501 30.8656 34.4934 30.4181 34.7372C29.9731 34.9787 29.4617 35.0994 28.8841 35.0994C28.2401 35.0994 27.6743 34.9479 27.1866 34.6449C26.7013 34.3419 26.3225 33.911 26.0502 33.3523C25.7804 32.7936 25.6454 32.1307 25.6454 31.3636C25.6454 30.7884 25.7224 30.2711 25.8762 29.8118C26.0325 29.3501 26.2527 28.9571 26.5368 28.6328C26.8208 28.3085 27.157 28.0599 27.5453 27.8871C27.9335 27.7143 28.3609 27.6278 28.8272 27.6278C29.2108 27.6278 29.5682 27.6858 29.8997 27.8018C30.2335 27.9155 30.5306 28.0777 30.791 28.2884C31.0538 28.4967 31.2728 28.7464 31.448 29.0376C31.6232 29.3265 31.7439 29.6473 31.8102 30H30.9011ZM35.5344 35.1136C35.0089 35.1136 34.5555 34.9976 34.1744 34.7656C33.7956 34.5312 33.5032 34.2045 33.2972 33.7855C33.0936 33.3641 32.9918 32.8741 32.9918 32.3153C32.9918 31.7566 33.0936 31.2642 33.2972 30.8381C33.5032 30.4096 33.7897 30.0758 34.1566 29.8366C34.5259 29.5952 34.9568 29.4744 35.4492 29.4744C35.7333 29.4744 36.0138 29.5218 36.2908 29.6165C36.5678 29.7112 36.82 29.8651 37.0472 30.0781C37.2745 30.2888 37.4556 30.5682 37.5906 30.9162C37.7255 31.2642 37.793 31.6927 37.793 32.2017V32.5568H33.5884V31.8324H36.9407C36.9407 31.5246 36.8791 31.25 36.756 31.0085C36.6353 30.767 36.4625 30.5765 36.2376 30.4368C36.015 30.2971 35.7522 30.2273 35.4492 30.2273C35.1154 30.2273 34.8266 30.3101 34.5827 30.4759C34.3413 30.6392 34.1554 30.8523 34.0252 31.1151C33.895 31.3778 33.8299 31.6596 33.8299 31.9602V32.4432C33.8299 32.8551 33.9009 33.2043 34.043 33.4908C34.1874 33.7749 34.3874 33.9915 34.6431 34.1406C34.8988 34.2874 35.1959 34.3608 35.5344 34.3608C35.7546 34.3608 35.9535 34.33 36.131 34.2685C36.311 34.2045 36.466 34.1098 36.5962 33.9844C36.7264 33.8565 36.8271 33.6979 36.8981 33.5085L37.7077 33.7358C37.6225 34.0104 37.4793 34.2519 37.2781 34.4602C37.0768 34.6662 36.8282 34.8272 36.5323 34.9432C36.2364 35.0568 35.9038 35.1136 35.5344 35.1136ZM39.9059 31.7188V35H39.0678V29.5455H39.8775V30.3977H39.9485C40.0763 30.1207 40.2705 29.8982 40.5309 29.7301C40.7913 29.5597 41.1275 29.4744 41.5394 29.4744C41.9087 29.4744 42.2319 29.5502 42.5089 29.7017C42.7859 29.8509 43.0013 30.0781 43.1552 30.3835C43.3091 30.6866 43.386 31.0701 43.386 31.5341V35H42.5479V31.5909C42.5479 31.1624 42.4367 30.8286 42.2141 30.5895C41.9916 30.348 41.6862 30.2273 41.2979 30.2273C41.0304 30.2273 40.7913 30.2853 40.5806 30.4013C40.3723 30.5173 40.2077 30.6866 40.087 30.9091C39.9663 31.1316 39.9059 31.4015 39.9059 31.7188ZM47.8436 35V27.7273H52.2044V28.5085H48.7243V30.9659H51.8777V31.7472H48.7243V35H47.8436ZM53.5991 35V29.5455H54.4371V35H53.5991ZM54.0252 28.6364C53.8619 28.6364 53.721 28.5807 53.6026 28.4695C53.4866 28.3582 53.4286 28.2244 53.4286 28.0682C53.4286 27.9119 53.4866 27.7782 53.6026 27.6669C53.721 27.5556 53.8619 27.5 54.0252 27.5C54.1886 27.5 54.3282 27.5556 54.4442 27.6669C54.5626 27.7782 54.6218 27.9119 54.6218 28.0682C54.6218 28.2244 54.5626 28.3582 54.4442 28.4695C54.3282 28.5807 54.1886 28.6364 54.0252 28.6364ZM56.8102 31.7188V35H55.9721V29.5455H56.7818V30.3977H56.8528C56.9806 30.1207 57.1748 29.8982 57.4352 29.7301C57.6956 29.5597 58.0318 29.4744 58.4437 29.4744C58.813 29.4744 59.1362 29.5502 59.4132 29.7017C59.6902 29.8509 59.9056 30.0781 60.0595 30.3835C60.2134 30.6866 60.2903 31.0701 60.2903 31.5341V35H59.4522V31.5909C59.4522 31.1624 59.341 30.8286 59.1184 30.5895C58.8959 30.348 58.5905 30.2273 58.2022 30.2273C57.9347 30.2273 57.6956 30.2853 57.4849 30.4013C57.2766 30.5173 57.112 30.6866 56.9913 30.9091C56.8706 31.1316 56.8102 31.4015 56.8102 31.7188ZM64.1939 29.5455V30.2557H61.3672V29.5455H64.1939ZM62.1911 28.2386H63.0291V33.4375C63.0291 33.6742 63.0634 33.8518 63.1321 33.9702C63.2031 34.0862 63.2931 34.1643 63.402 34.2045C63.5133 34.2424 63.6304 34.2614 63.7536 34.2614C63.8459 34.2614 63.9216 34.2566 63.9808 34.2472C64.04 34.2353 64.0874 34.2259 64.1229 34.2188L64.2933 34.9716C64.2365 34.9929 64.1572 35.0142 64.0554 35.0355C63.9536 35.0592 63.8246 35.071 63.6683 35.071C63.4316 35.071 63.1996 35.0201 62.9723 34.9183C62.7474 34.8165 62.5604 34.6615 62.4112 34.4531C62.2644 34.2448 62.1911 33.982 62.1911 33.6648V28.2386ZM67.6829 35.1136C67.1573 35.1136 66.704 34.9976 66.3228 34.7656C65.944 34.5312 65.6516 34.2045 65.4457 33.7855C65.2421 33.3641 65.1403 32.8741 65.1403 32.3153C65.1403 31.7566 65.2421 31.2642 65.4457 30.8381C65.6516 30.4096 65.9381 30.0758 66.305 29.8366C66.6744 29.5952 67.1052 29.4744 67.5977 29.4744C67.8817 29.4744 68.1623 29.5218 68.4393 29.6165C68.7163 29.7112 68.9684 29.8651 69.1957 30.0781C69.4229 30.2888 69.604 30.5682 69.739 30.9162C69.8739 31.2642 69.9414 31.6927 69.9414 32.2017V32.5568H65.7369V31.8324H69.0891C69.0891 31.5246 69.0276 31.25 68.9045 31.0085C68.7837 30.767 68.6109 30.5765 68.386 30.4368C68.1635 30.2971 67.9007 30.2273 67.5977 30.2273C67.2638 30.2273 66.975 30.3101 66.7312 30.4759C66.4897 30.6392 66.3039 30.8523 66.1737 31.1151C66.0434 31.3778 65.9783 31.6596 65.9783 31.9602V32.4432C65.9783 32.8551 66.0494 33.2043 66.1914 33.4908C66.3358 33.7749 66.5359 33.9915 66.7915 34.1406C67.0472 34.2874 67.3443 34.3608 67.6829 34.3608C67.9031 34.3608 68.1019 34.33 68.2795 34.2685C68.4594 34.2045 68.6145 34.1098 68.7447 33.9844C68.8749 33.8565 68.9755 33.6979 69.0465 33.5085L69.8562 33.7358C69.771 34.0104 69.6277 34.2519 69.4265 34.4602C69.2253 34.6662 68.9767 34.8272 68.6808 34.9432C68.3848 35.0568 68.0522 35.1136 67.6829 35.1136ZM73.4322 35.1136C72.9208 35.1136 72.4805 34.9929 72.1112 34.7514C71.7418 34.5099 71.4577 34.1773 71.2589 33.7536C71.06 33.3298 70.9606 32.8456 70.9606 32.3011C70.9606 31.7472 71.0624 31.2583 71.266 30.8345C71.4719 30.4084 71.7584 30.0758 72.1254 29.8366C72.4947 29.5952 72.9255 29.4744 73.418 29.4744C73.8015 29.4744 74.1471 29.5455 74.4549 29.6875C74.7627 29.8295 75.0148 30.0284 75.2113 30.2841C75.4078 30.5398 75.5297 30.8381 75.5771 31.179H74.739C74.6751 30.9304 74.533 30.7102 74.3129 30.5185C74.0951 30.3243 73.8015 30.2273 73.4322 30.2273C73.1055 30.2273 72.819 30.3125 72.5728 30.483C72.329 30.651 72.1384 30.889 72.0011 31.1967C71.8661 31.5021 71.7987 31.8608 71.7987 32.2727C71.7987 32.6941 71.8649 33.0611 71.9975 33.3736C72.1325 33.6861 72.3219 33.9287 72.5657 34.1016C72.8119 34.2744 73.1007 34.3608 73.4322 34.3608C73.65 34.3608 73.8477 34.3229 74.0252 34.2472C74.2028 34.1714 74.3531 34.0625 74.4762 33.9205C74.5993 33.7784 74.6869 33.608 74.739 33.4091H75.5771C75.5297 33.7311 75.4125 34.0211 75.2255 34.2791C75.0408 34.5348 74.7958 34.7384 74.4904 34.8899C74.1874 35.0391 73.8346 35.1136 73.4322 35.1136ZM77.6403 31.7188V35H76.8022V27.7273H77.6403V30.3977H77.7113C77.8391 30.116 78.0309 29.8923 78.2866 29.7266C78.5446 29.5585 78.8879 29.4744 79.3164 29.4744C79.6881 29.4744 80.0136 29.549 80.293 29.6982C80.5723 29.8449 80.7889 30.071 80.9428 30.3764C81.0991 30.6795 81.1772 31.0653 81.1772 31.5341V35H80.3391V31.5909C80.3391 31.1577 80.2267 30.8227 80.0018 30.5859C79.7792 30.3468 79.4703 30.2273 79.0749 30.2273C78.8003 30.2273 78.5541 30.2853 78.3363 30.4013C78.1209 30.5173 77.9504 30.6866 77.8249 30.9091C77.7018 31.1316 77.6403 31.4015 77.6403 31.7188Z" fill="#F3FDFF"/>
</svg>
