<svg width="26" height="25" viewBox="0 0 26 25" fill="none" xmlns="http://www.w3.org/2000/svg">
<g filter="url(#filter0_d_89_1263)">
<path d="M21.3902 19.6343L14.0498 23.7011C13.477 24.0826 12.6807 24.1164 11.9888 23.7011L4.64844 19.6343C3.77663 19.1238 3.79111 18.1095 4.64844 17.6218L11.9888 13.3336C12.6837 12.8693 13.4254 12.9088 14.0498 13.3336L21.3902 17.6218C22.2966 18.2449 22.1043 19.2367 21.3902 19.6343Z" fill="#DB26B5"/>
</g>
<g filter="url(#filter1_dd_89_1263)">
<path d="M21.3902 13.6343L14.0498 17.7011C13.477 18.0826 12.6807 18.1164 11.9888 17.7011L4.64844 13.6343C3.77663 13.1238 3.79111 12.1095 4.64844 11.6218L11.9888 7.33356C12.6837 6.86929 13.4254 6.90877 14.0498 7.33356L21.3902 11.6218C22.2966 12.2449 22.1043 13.2367 21.3902 13.6343Z" fill="url(#paint0_linear_89_1263)"/>
</g>
<g filter="url(#filter2_d_89_1263)">
<path d="M21.3902 9.63429L14.0498 13.7011C13.477 14.0826 12.6807 14.1164 11.9888 13.7011L4.64844 9.63429C3.77663 9.12378 3.79111 8.10952 4.64844 7.62181L11.9888 3.33356C12.6837 2.86929 13.4254 2.90877 14.0498 3.33356L21.3902 7.62181C22.2966 8.24485 22.1043 9.23674 21.3902 9.63429Z" fill="url(#paint1_linear_89_1263)"/>
</g>
<defs>
<filter id="filter0_d_89_1263" x="4" y="13" width="18" height="11" filterUnits="userSpaceOnUse" color-interpolation-filters="sRGB">
<feFlood flood-opacity="0" result="BackgroundImageFix"/>
<feColorMatrix in="SourceAlpha" type="matrix" values="0 0 0 0 0 0 0 0 0 0 0 0 0 0 0 0 0 0 127 0" result="hardAlpha"/>
<feOffset/>
<feComposite in2="hardAlpha" operator="out"/>
<feColorMatrix type="matrix" values="0 0 0 0 0 0 0 0 0 0 0 0 0 0 0 0 0 0 0.85 0"/>
<feBlend mode="normal" in2="BackgroundImageFix" result="effect1_dropShadow_89_1263"/>
<feBlend mode="normal" in="SourceGraphic" in2="effect1_dropShadow_89_1263" result="shape"/>
</filter>
<filter id="filter1_dd_89_1263" x="0.347826" y="4.26087" width="25.3043" height="18.3043" filterUnits="userSpaceOnUse" color-interpolation-filters="sRGB">
<feFlood flood-opacity="0" result="BackgroundImageFix"/>
<feColorMatrix in="SourceAlpha" type="matrix" values="0 0 0 0 0 0 0 0 0 0 0 0 0 0 0 0 0 0 127 0" result="hardAlpha"/>
<feOffset/>
<feComposite in2="hardAlpha" operator="out"/>
<feColorMatrix type="matrix" values="0 0 0 0 0 0 0 0 0 0 0 0 0 0 0 0 0 0 0.85 0"/>
<feBlend mode="normal" in2="BackgroundImageFix" result="effect1_dropShadow_89_1263"/>
<feColorMatrix in="SourceAlpha" type="matrix" values="0 0 0 0 0 0 0 0 0 0 0 0 0 0 0 0 0 0 127 0" result="hardAlpha"/>
<feOffset dy="0.913043"/>
<feGaussianBlur stdDeviation="1.82609"/>
<feComposite in2="hardAlpha" operator="out"/>
<feColorMatrix type="matrix" values="0 0 0 0 0 0 0 0 0 0 0 0 0 0 0 0 0 0 0.2 0"/>
<feBlend mode="normal" in2="effect1_dropShadow_89_1263" result="effect2_dropShadow_89_1263"/>
<feBlend mode="normal" in="SourceGraphic" in2="effect2_dropShadow_89_1263" result="shape"/>
</filter>
<filter id="filter2_d_89_1263" x="0.347826" y="0.26087" width="25.3043" height="18.3043" filterUnits="userSpaceOnUse" color-interpolation-filters="sRGB">
<feFlood flood-opacity="0" result="BackgroundImageFix"/>
<feColorMatrix in="SourceAlpha" type="matrix" values="0 0 0 0 0 0 0 0 0 0 0 0 0 0 0 0 0 0 127 0" result="hardAlpha"/>
<feOffset dy="0.913043"/>
<feGaussianBlur stdDeviation="1.82609"/>
<feComposite in2="hardAlpha" operator="out"/>
<feColorMatrix type="matrix" values="0 0 0 0 0 0 0 0 0 0 0 0 0 0 0 0 0 0 0.2 0"/>
<feBlend mode="normal" in2="BackgroundImageFix" result="effect1_dropShadow_89_1263"/>
<feBlend mode="normal" in="SourceGraphic" in2="effect1_dropShadow_89_1263" result="shape"/>
</filter>
<linearGradient id="paint0_linear_89_1263" x1="13" y1="17.3005" x2="8.53606" y2="10.7343" gradientUnits="userSpaceOnUse">
<stop stop-color="#F026C6"/>
<stop offset="1" stop-color="#F48EDF"/>
</linearGradient>
<linearGradient id="paint1_linear_89_1263" x1="12.7647" y1="14" x2="7.96368" y2="6.26398" gradientUnits="userSpaceOnUse">
<stop stop-color="#F026C6"/>
<stop offset="1" stop-color="#F48EDF"/>
</linearGradient>
</defs>
</svg>
