<svg width="24" height="24" viewBox="0 0 24 24" fill="none" xmlns="http://www.w3.org/2000/svg">
<path d="M17.6207 18C17.6174 17.6771 17.61 17.3545 17.6117 17.0316C17.621 15.5019 17.1138 14.1597 16.072 13.0101C16.0449 12.9803 16.0239 12.9453 16 12.9127C16.4123 12.6307 16.8371 12.3698 17.3211 12.2191C17.6699 12.1106 18.0215 12.0171 18.3932 12.0046C18.9357 11.9866 19.471 12.0171 19.991 12.1796C20.5495 12.3538 21.0578 12.6206 21.5007 12.9965C22.07 13.4792 22.4955 14.0637 22.7476 14.7549C22.8853 15.1329 22.9869 15.5262 22.9951 15.9312C23.0044 16.4041 22.9976 16.8778 22.9973 17.3511C22.9973 17.7356 22.7262 17.999 22.326 17.999C20.817 18 19.308 17.9993 17.799 17.9993C17.7394 17.9993 17.6802 17.9993 17.6207 17.9997V18Z" fill="#DB26B5"/>
<path d="M8.99964 12.8047C8.57525 13.3122 8.20624 13.8505 7.95416 14.457C7.68387 15.1069 7.52796 15.7789 7.51448 16.4779C7.50464 16.9854 7.50501 17.4929 7.50064 18C5.91202 18 4.32305 18 2.73444 17.9993C2.36105 17.9993 2.11116 17.8372 2.02701 17.5473C2.02373 17.5362 2.01608 17.5254 2.01608 17.5143C2.00807 16.921 1.97893 16.3262 2.02701 15.7345C2.0638 15.2815 2.20186 14.8426 2.40768 14.43C2.76249 13.7202 3.27502 13.1411 3.96751 12.699C4.47386 12.3759 5.0221 12.1607 5.6155 12.0651C6.44642 11.9314 7.26094 11.9986 8.04851 12.3128C8.38474 12.4469 8.68199 12.6419 9 12.8043L8.99964 12.8047Z" fill="#DB26B5"/>
<g filter="url(#filter0_d_89_1270)">
<path d="M8.33745 12.9166C8.66287 12.5731 8.99903 12.2427 9.39077 11.9745C10.5195 11.2027 11.7607 10.8865 13.1148 11.0361C14.4236 11.1807 15.5286 11.7493 16.449 12.6947C16.4714 12.7177 16.498 12.7364 16.5228 12.7575C16.5445 12.7884 16.5637 12.8216 16.5884 12.8498C17.5377 13.9405 18.0003 15.2139 17.9919 16.6651C17.9902 16.9711 17.9971 17.2775 18 17.5838C17.9971 17.786 17.9941 17.9885 17.9909 18.1906C17.9831 18.6584 17.6515 18.9917 17.1863 18.9989C17.0673 19.0009 16.948 18.9996 16.829 18.9996C13.8397 18.9996 10.8508 18.9996 7.86151 18.9992C7.44701 18.9992 7.15605 18.7958 7.04031 18.4339C7.01658 18.3593 7.01138 18.284 7.00943 18.2074C7.00618 18.0871 7.00325 17.9671 7 17.8468C7.0039 17.3653 7.00358 16.8837 7.01235 16.4025C7.02438 15.7392 7.16352 15.1015 7.40475 14.4848C7.62971 13.9093 7.95936 13.3985 8.33778 12.9169L8.33745 12.9166Z" fill="url(#paint0_linear_89_1270)"/>
</g>
<path d="M18.0092 7.00062C19.1232 6.98367 20.0072 7.91766 20 9.00733C19.9927 10.0806 19.1411 11.0156 17.9623 10.9998C16.9074 10.9856 15.9661 10.094 16.0009 8.92829C16.0309 7.921 16.8847 6.97216 18.0092 7.00062Z" fill="#DB26B5"/>
<path d="M6.99992 9.00623C7.00993 10.1062 6.08664 11.0161 4.98168 10.9998C3.89157 10.9835 2.98739 10.0986 3.00013 8.99537C3.01318 7.86619 3.88368 6.99789 5.02202 7C6.11152 7.00181 7.00963 7.89906 6.99992 9.00623Z" fill="#DB26B5"/>
<g filter="url(#filter1_d_89_1270)">
<path d="M12.0065 11C10.3418 11.002 9.00171 9.66852 9 8.00783C8.99795 6.34612 10.3347 5.00375 11.9942 5.00001C13.6541 4.99626 14.9969 6.33455 15 7.99558C15.0031 9.65967 13.6694 10.998 12.0065 11Z" fill="url(#paint1_linear_89_1270)"/>
</g>
<defs>
<filter id="filter0_d_89_1270" x="3.31954" y="8.23965" width="18.3609" height="15.3609" filterUnits="userSpaceOnUse" color-interpolation-filters="sRGB">
<feFlood flood-opacity="0" result="BackgroundImageFix"/>
<feColorMatrix in="SourceAlpha" type="matrix" values="0 0 0 0 0 0 0 0 0 0 0 0 0 0 0 0 0 0 127 0" result="hardAlpha"/>
<feOffset dy="0.920116"/>
<feGaussianBlur stdDeviation="1.84023"/>
<feComposite in2="hardAlpha" operator="out"/>
<feColorMatrix type="matrix" values="0 0 0 0 0 0 0 0 0 0 0 0 0 0 0 0 0 0 0.2 0"/>
<feBlend mode="normal" in2="BackgroundImageFix" result="effect1_dropShadow_89_1270"/>
<feBlend mode="normal" in="SourceGraphic" in2="effect1_dropShadow_89_1270" result="shape"/>
</filter>
<filter id="filter1_d_89_1270" x="5.31954" y="2.23965" width="13.3609" height="13.3609" filterUnits="userSpaceOnUse" color-interpolation-filters="sRGB">
<feFlood flood-opacity="0" result="BackgroundImageFix"/>
<feColorMatrix in="SourceAlpha" type="matrix" values="0 0 0 0 0 0 0 0 0 0 0 0 0 0 0 0 0 0 127 0" result="hardAlpha"/>
<feOffset dy="0.920116"/>
<feGaussianBlur stdDeviation="1.84023"/>
<feComposite in2="hardAlpha" operator="out"/>
<feColorMatrix type="matrix" values="0 0 0 0 0 0 0 0 0 0 0 0 0 0 0 0 0 0 0.2 0"/>
<feBlend mode="normal" in2="BackgroundImageFix" result="effect1_dropShadow_89_1270"/>
<feBlend mode="normal" in="SourceGraphic" in2="effect1_dropShadow_89_1270" result="shape"/>
</filter>
<linearGradient id="paint0_linear_89_1270" x1="12.3562" y1="19" x2="8.63195" y2="13.9575" gradientUnits="userSpaceOnUse">
<stop stop-color="#F026C6"/>
<stop offset="1" stop-color="#F48EDF"/>
</linearGradient>
<linearGradient id="paint1_linear_89_1270" x1="11.9216" y1="11" x2="8.99949" y2="8.12262" gradientUnits="userSpaceOnUse">
<stop stop-color="#F026C6"/>
<stop offset="1" stop-color="#F48EDF"/>
</linearGradient>
</defs>
</svg>
