<svg width="28" height="28" viewBox="0 0 28 28" fill="none" xmlns="http://www.w3.org/2000/svg">
<path d="M9.00267 13.0076C9.00267 13.6559 9.00567 14.3045 9.00042 14.9528C8.9993 15.0852 9.03904 15.1454 9.17254 15.1907C10.7524 15.7282 11.7187 16.8168 11.9591 18.4645C12.2864 20.7086 10.6946 22.6017 8.68056 22.9346C6.52212 23.2915 4.6573 21.9179 4.13982 20.0502C3.57696 18.0183 4.76418 15.827 6.78986 15.209C6.95786 15.1578 7.00998 15.0826 7.00886 14.9083C7.00098 13.6305 7.00211 12.3523 7.00773 11.0741C7.00848 10.9185 6.96423 10.8459 6.80936 10.7969C5.10054 10.2571 3.9647 8.68378 4.00707 6.92903C4.05057 5.11705 5.23441 3.60919 6.98673 3.13375C9.00567 2.58574 11.1847 3.77265 11.8008 5.76344C11.8556 5.94075 11.9317 6.00471 12.1237 6.00397C13.1362 5.99948 14.1486 5.99723 15.1607 6.02267C16.036 6.04474 16.9041 6.13788 17.753 6.37803C19.352 6.83028 20.3142 7.87804 20.7083 9.47157C20.9419 10.4168 20.9926 11.3804 20.9982 12.3481C21.003 13.2021 21.0072 14.0565 20.9974 14.9105C20.9956 15.0886 21.057 15.1559 21.2202 15.2079C22.8352 15.723 23.9268 17.1601 23.9966 18.8498C24.0656 20.5174 23.0839 22.0477 21.5299 22.6945C19.1574 23.682 16.4597 22.1738 16.0558 19.6342C15.7442 17.6737 16.9089 15.7911 18.8022 15.2042C18.9507 15.1581 19.0104 15.0946 19.0077 14.9318C18.9905 13.7977 19.0055 12.662 18.9635 11.5289C18.9429 10.9787 18.8469 10.4269 18.7385 9.88491C18.5559 8.97032 17.951 8.46645 17.0604 8.25623C16.2208 8.05834 15.3677 8.01271 14.5109 8.00223C13.6987 7.99251 12.8861 7.99774 12.0738 7.98951C11.9328 7.98802 11.868 8.03066 11.8222 8.16982C11.3857 9.49177 10.5026 10.3753 9.17442 10.807C9.04279 10.8496 8.99892 10.9091 9.00005 11.0438C9.00605 11.6984 9.00267 12.353 9.00267 13.0076Z" fill="#DB26B5"/>
<g filter="url(#filter0_d_89_1254)">
<circle cx="8" cy="7" r="4" fill="url(#paint0_linear_89_1254)"/>
</g>
<g filter="url(#filter1_d_89_1254)">
<circle cx="20" cy="19" r="4" fill="url(#paint1_linear_89_1254)"/>
</g>
<g filter="url(#filter2_d_89_1254)">
<circle cx="8" cy="19" r="4" fill="url(#paint2_linear_89_1254)"/>
</g>
<defs>
<filter id="filter0_d_89_1254" x="0.393821" y="0.295366" width="15.2124" height="15.2124" filterUnits="userSpaceOnUse" color-interpolation-filters="sRGB">
<feFlood flood-opacity="0" result="BackgroundImageFix"/>
<feColorMatrix in="SourceAlpha" type="matrix" values="0 0 0 0 0 0 0 0 0 0 0 0 0 0 0 0 0 0 127 0" result="hardAlpha"/>
<feOffset dy="0.901545"/>
<feGaussianBlur stdDeviation="1.80309"/>
<feComposite in2="hardAlpha" operator="out"/>
<feColorMatrix type="matrix" values="0 0 0 0 0 0 0 0 0 0 0 0 0 0 0 0 0 0 0.2 0"/>
<feBlend mode="normal" in2="BackgroundImageFix" result="effect1_dropShadow_89_1254"/>
<feBlend mode="normal" in="SourceGraphic" in2="effect1_dropShadow_89_1254" result="shape"/>
</filter>
<filter id="filter1_d_89_1254" x="12.3938" y="12.2954" width="15.2124" height="15.2124" filterUnits="userSpaceOnUse" color-interpolation-filters="sRGB">
<feFlood flood-opacity="0" result="BackgroundImageFix"/>
<feColorMatrix in="SourceAlpha" type="matrix" values="0 0 0 0 0 0 0 0 0 0 0 0 0 0 0 0 0 0 127 0" result="hardAlpha"/>
<feOffset dy="0.901545"/>
<feGaussianBlur stdDeviation="1.80309"/>
<feComposite in2="hardAlpha" operator="out"/>
<feColorMatrix type="matrix" values="0 0 0 0 0 0 0 0 0 0 0 0 0 0 0 0 0 0 0.2 0"/>
<feBlend mode="normal" in2="BackgroundImageFix" result="effect1_dropShadow_89_1254"/>
<feBlend mode="normal" in="SourceGraphic" in2="effect1_dropShadow_89_1254" result="shape"/>
</filter>
<filter id="filter2_d_89_1254" x="0.393821" y="12.2954" width="15.2124" height="15.2124" filterUnits="userSpaceOnUse" color-interpolation-filters="sRGB">
<feFlood flood-opacity="0" result="BackgroundImageFix"/>
<feColorMatrix in="SourceAlpha" type="matrix" values="0 0 0 0 0 0 0 0 0 0 0 0 0 0 0 0 0 0 127 0" result="hardAlpha"/>
<feOffset dy="0.901545"/>
<feGaussianBlur stdDeviation="1.80309"/>
<feComposite in2="hardAlpha" operator="out"/>
<feColorMatrix type="matrix" values="0 0 0 0 0 0 0 0 0 0 0 0 0 0 0 0 0 0 0.2 0"/>
<feBlend mode="normal" in2="BackgroundImageFix" result="effect1_dropShadow_89_1254"/>
<feBlend mode="normal" in="SourceGraphic" in2="effect1_dropShadow_89_1254" result="shape"/>
</filter>
<linearGradient id="paint0_linear_89_1254" x1="12.4164" y1="2.93224" x2="6.13966" y2="11.1171" gradientUnits="userSpaceOnUse">
<stop stop-color="#F026C6"/>
<stop offset="1" stop-color="#F48EDF"/>
</linearGradient>
<linearGradient id="paint1_linear_89_1254" x1="23.5781" y1="21.5531" x2="16.8703" y2="16.409" gradientUnits="userSpaceOnUse">
<stop stop-color="#F026C6"/>
<stop offset="1" stop-color="#F48EDF"/>
</linearGradient>
<linearGradient id="paint2_linear_89_1254" x1="11.5781" y1="21.5531" x2="4.87028" y2="16.409" gradientUnits="userSpaceOnUse">
<stop stop-color="#F026C6"/>
<stop offset="1" stop-color="#F48EDF"/>
</linearGradient>
</defs>
</svg>
