<svg width="22" height="22" viewBox="0 0 22 22" fill="none" xmlns="http://www.w3.org/2000/svg">
<rect width="22" height="22" rx="4" fill="#F6F6F8"/>
<g opacity="0.8">
<path d="M6 7.6875H7.66667M7.66667 7.6875C7.66667 8.61948 8.41286 9.375 9.33333 9.375C10.2538 9.375 11 8.61948 11 7.6875C11 6.75552 10.2538 6 9.33333 6C8.41286 6 7.66667 6.75552 7.66667 7.6875ZM6 13.3125H9.33333M14.3333 13.3125H16M14.3333 13.3125C14.3333 14.2445 13.5871 15 12.6667 15C11.7462 15 11 14.2445 11 13.3125C11 12.3805 11.7462 11.625 12.6667 11.625C13.5871 11.625 14.3333 12.3805 14.3333 13.3125ZM12.6667 7.6875H16" stroke="black" stroke-linecap="round"/>
</g>
</svg>
