<svg width="21" height="20" viewBox="0 0 21 20" fill="none" xmlns="http://www.w3.org/2000/svg">
<path id="coin-convert" d="M1.50146 9.80005C1.47446 9.80005 1.44651 9.79902 1.41851 9.79602C1.00651 9.75102 0.709508 9.37999 0.754508 8.96899C1.11751 5.65199 3.11949 2.79503 6.10949 1.32703C6.34249 1.21303 6.61748 1.22701 6.83648 1.36401C7.05648 1.50101 7.19048 1.74198 7.19048 2.00098V5.05103C7.19048 5.46503 6.85448 5.80103 6.44048 5.80103C6.02648 5.80103 5.69048 5.46503 5.69048 5.05103V3.31006C3.76748 4.64806 2.50645 6.74896 2.24645 9.13196C2.20445 9.51496 1.87846 9.80005 1.50146 9.80005ZM19.5815 10.205C19.1735 10.161 18.8005 10.457 18.7555 10.869C18.4945 13.252 17.2345 15.353 15.3105 16.691V14.95C15.3105 14.536 14.9745 14.2 14.5605 14.2C14.1465 14.2 13.8105 14.536 13.8105 14.95V18C13.8105 18.259 13.9445 18.5 14.1645 18.637C14.2855 18.712 14.4225 18.75 14.5605 18.75C14.6735 18.75 14.7865 18.725 14.8915 18.673C17.8815 17.206 19.8835 14.349 20.2455 11.031C20.2915 10.62 19.9935 10.25 19.5815 10.205ZM9.75048 5C9.75048 2.381 11.8815 0.25 14.5005 0.25C17.1195 0.25 19.2505 2.381 19.2505 5C19.2505 7.619 17.1195 9.75 14.5005 9.75C11.8815 9.75 9.75048 7.619 9.75048 5ZM11.2505 5C11.2505 6.792 12.7085 8.25 14.5005 8.25C16.2925 8.25 17.7505 6.792 17.7505 5C17.7505 3.208 16.2925 1.75 14.5005 1.75C12.7085 1.75 11.2505 3.208 11.2505 5ZM11.2505 15C11.2505 17.619 9.11948 19.75 6.50048 19.75C3.88148 19.75 1.75048 17.619 1.75048 15C1.75048 12.381 3.88148 10.25 6.50048 10.25C9.11948 10.25 11.2505 12.381 11.2505 15ZM9.75048 15C9.75048 13.208 8.29248 11.75 6.50048 11.75C4.70848 11.75 3.25048 13.208 3.25048 15C3.25048 16.792 4.70848 18.25 6.50048 18.25C8.29248 18.25 9.75048 16.792 9.75048 15Z" fill="#5E186B"/>
</svg>
